# xmcd
#
# Track frame offsets:
#	180
#	11737
#	29970
#	44090
#	55521
#	70469
#	87060
#	105349
#	121992
#	135347
#	150053
#	162718
#	177723
#	191248
#	206957
#
# Disc length: 2936 seconds
#
# Revision: 1
# Processed by: cddbd v1.5.1PL2 Copyright (c) Steve Scherf et al.
# Submitted via: audiograbber 1.83.01
#
DISCID=d70b760f
DTITLE=Sound Choice - SC8101
DYEAR=1900
DGENRE=Karaoke Country
TTITLE0=Tritt, Travis - Here'S A Quarter (Call Someone Who Cares)
TTITLE1=Tucker, Tanya - Some Kind Of Trouble
TTITLE2=Mcentire, Reba - It'S Your Call
TTITLE3=Jackson, Alan - Chattahoochee
TTITLE4=Brooks and Dunn - Boot Scootin' Boogie
TTITLE5=Milsap, Ronnie - Smokey Mountain Rain
TTITLE6=Yearwood, Trisha - She'S In Love With The Boy
TTITLE7=Mandrell, Barbara - I Was Country When Country Wasn'T Cool
TTITLE8=Brooks and Dunn - Brand New Man
TTITLE9=Brown, Sawyer - Some Girls Do
TTITLE10=Cline, Patsy - Crazy
TTITLE11=Montgomery, John Michael - Life'S A Dance
TTITLE12=Kershaw, Sammy - Cadillac Style
TTITLE13=Diamond Rio - Norma Jean Riley
TTITLE14=Keith, Toby - A Little Less Talk And A Lot More Action
EXTD=
EXTT0=
EXTT1=
EXTT2=
EXTT3=
EXTT4=
EXTT5=
EXTT6=
EXTT7=
EXTT8=
EXTT9=
EXTT10=
EXTT11=
EXTT12=
EXTT13=
EXTT14=
PLAYORDER=
